<?xml version="1.0" encoding="UTF-8"?>
<svg xmlns="http://www.w3.org/2000/svg" xmlns:xlink="http://www.w3.org/1999/xlink" viewBox="0 0 60 60" width="60px" height="60px">
<g id="surface47360921">
<path style=" stroke:none;fill-rule:nonzero;fill:rgb(92.54902%,94.117647%,94.509804%);fill-opacity:1;" d="M 53.769531 33.15625 C 53.90625 32.121094 54 31.070312 54 30 C 54 16.746094 43.253906 6 30 6 C 28.929688 6 27.878906 6.09375 26.84375 6.230469 C 24.558594 4.824219 21.878906 4 19 4 C 10.714844 4 4 10.714844 4 19 C 4 21.878906 4.824219 24.558594 6.230469 26.84375 C 6.09375 27.878906 6 28.929688 6 30 C 6 43.253906 16.746094 54 30 54 C 31.070312 54 32.121094 53.90625 33.15625 53.769531 C 35.441406 55.175781 38.121094 56 41 56 C 49.285156 56 56 49.285156 56 41 C 56 38.121094 55.175781 35.441406 53.769531 33.15625 Z M 30.296875 44 C 22.507812 44 18.03125 39.914062 18.03125 35.90625 C 18.03125 33.863281 20.171875 33.210938 21.027344 33.210938 C 23.007812 33.210938 23.664062 34.824219 24.023438 35.5625 C 26.035156 39.695312 27.964844 39.152344 29.871094 39.332031 C 31.550781 39.488281 35.5 38.746094 35.5 35.863281 C 35.5 35.589844 35.933594 33.710938 32.527344 32.78125 C 30.347656 32.1875 26.507812 31.457031 23.347656 30.238281 C 20.375 29.097656 18.632812 26.738281 18.632812 23.703125 C 18.632812 22.1875 19.410156 16 29.933594 16 C 36.957031 16 40.703125 19.597656 40.703125 22.765625 C 40.703125 23.492188 40.425781 24.132812 39.867188 24.710938 C 39.308594 25.289062 37.734375 26.136719 36.015625 25.035156 C 35.578125 24.757812 35.222656 24.179688 34.792969 23.429688 C 34.277344 22.484375 33.433594 20.664062 29.546875 20.664062 C 25.777344 20.664062 24.730469 22.464844 24.730469 23.214844 C 24.730469 25.734375 29.542969 26.265625 30.835938 26.597656 C 35.550781 27.8125 41.964844 28.933594 41.964844 35.289062 C 41.964844 42.589844 34.371094 44 30.296875 44 Z M 30.296875 44 "/>
</g>
</svg>
